<svg width="356" height="266" viewBox="0 0 356 266" fill="none" xmlns="http://www.w3.org/2000/svg">
<path d="M236.74 111.288C242.969 110.626 250.174 109.842 257.093 109.999" stroke="black" stroke-width="2.02"/>
<path d="M202.809 117.57C191.778 120.354 181.045 124.372 171.888 131.051C156.522 142.247 149.497 163.132 155.777 181.227C155.777 181.251 180.473 252.489 180.473 252.489H173.974C171.144 252.488 168.432 253.617 166.439 255.625C164.507 257.546 163.554 260.748 163.554 263.688H222.052L199.822 190.972C198.698 187.337 199.371 183.384 201.636 180.326C203.901 177.268 207.487 175.472 211.292 175.488C223.958 175.845 235.721 176.331 248.532 175.774" stroke="black" stroke-width="2.02"/>
<path d="M334.889 101.446V101.368C334.321 86.0796 333.553 70.9954 329.37 57.6204C321.491 32.454 303.475 1.19196 272.777 1.3566C269.829 1.36812 266.892 1.71798 264.024 2.39932C243.789 7.20916 229.735 27.942 221.688 49.3256L221.617 49.4903C220.849 51.5417 220.138 53.588 219.485 55.629C219.042 57.0025 218.495 58.3405 217.85 59.6313C212.804 69.7991 202.037 75.83 190.731 74.8213C153.57 71.4423 104.593 69.5136 89.1682 95.6248" stroke="black" stroke-width="2.02"/>
<path d="M274.079 73.0098C268.669 79.5405 262.973 85.8478 257.086 91.9473C245.032 104.444 234.632 117.717 215.926 118.603C201.002 119.321 186.796 113.594 172.684 109.623C157.588 105.377 149.948 101.982 135.879 97.694C131.827 96.4637 127.624 95.804 123.39 95.734L109.227 95.8438" stroke="black" stroke-width="2.02"/>
<path d="M218.838 253.405C220.187 252.801 221.649 252.49 223.127 252.496H229.642C229.642 252.496 216.024 226.024 205.134 208.404" stroke="black" stroke-width="2.02"/>
<path d="M227.784 175.833L273.334 264.162H221.81H212.464" stroke="black" stroke-width="2.02"/>
<path fill-rule="evenodd" clip-rule="evenodd" d="M352.047 259.092C349.664 262.373 345.732 264.161 341.679 264.161H295.109C291.248 264.161 287.481 262.561 285.074 259.543C283.615 257.735 282.702 255.548 282.444 253.24C282.209 251.119 283.785 249.233 285.917 249.32C287.588 249.384 288.954 250.674 289.116 252.338C289.211 253.477 289.658 254.557 290.394 255.431C291.532 256.736 293.19 257.47 294.921 257.434H341.879C343.58 257.463 345.208 256.747 346.336 255.474C347.615 253.995 348.02 251.951 347.402 250.096L326.434 187.76C324.258 181.71 318.492 177.7 312.063 177.764C303.236 177.87 292.028 177.893 290.974 177.893C264.816 177.811 254.518 177.811 249.061 178.011C248.89 178.01 248.725 177.941 248.605 177.819C248.484 177.697 248.417 177.532 248.418 177.36C248.411 174.94 249.299 172.603 250.911 170.798C250.924 170.789 250.933 170.775 250.935 170.759C252.371 169.234 254.333 168.312 256.423 168.18C265.133 167.466 273.757 166.165 282.134 163.891C296.917 159.885 311.017 153.013 320.813 141.963C325.581 136.613 329.186 130.331 331.397 123.515C333.108 118.105 334.186 112.514 334.607 106.855C334.761 105.062 334.856 103.262 334.89 101.453V101.367C334.89 100.956 334.913 100.528 334.913 100.113C334.966 97.5297 334.849 94.946 334.56 92.3786C338.825 92.355 343.125 95.4558 343.87 99.7834C343.941 100.206 343.977 100.633 343.976 101.061V151.759C343.985 158.754 341.191 165.462 336.218 170.383C332.142 174.42 330.981 180.547 332.914 185.937L353.753 247.944C355.037 251.716 354.401 255.877 352.047 259.092V259.092Z" stroke="black" stroke-width="2.02"/>
<rect x="1.59961" y="104.606" width="132.092" height="10.7682" rx="5.38412" stroke="black" stroke-width="2.02"/>
<rect x="41.8776" y="258.203" width="55.0878" height="6.02896" rx="3.01448" stroke="black" stroke-width="2.02"/>
<path fill-rule="evenodd" clip-rule="evenodd" d="M57.9928 99.7703V100.311C58.0712 104.031 61.5718 104.6 64.5902 104.623L122.943 104.584C125.499 104.584 127.608 102.624 127.612 100.217V100.115C127.565 97.7633 125.511 95.8464 122.986 95.8425C122.986 95.8425 90.3406 95.7249 65.0566 95.6504C64.6019 96.9754 63.4494 98.0024 62.0108 98.8413C60.7732 99.4901 59.3896 99.8101 57.9928 99.7703Z" stroke="black" stroke-width="2.02"/>
<path fill-rule="evenodd" clip-rule="evenodd" d="M25.9037 47.3615C25.9159 47.9809 26.0932 48.5858 26.4173 49.1138L53.4653 94.5426C54.173 95.6471 55.3098 96.4059 56.6013 96.6359C57.682 96.849 58.802 96.7273 59.8117 96.287C61.4699 95.5501 62.4264 94.0644 62.395 92.5591C62.3891 92.3698 62.3694 92.1811 62.3362 91.9946C62.253 91.5795 62.0992 91.1817 61.8815 90.8186L34.8335 45.3898C33.6575 43.4023 30.7802 42.6222 28.4674 43.6454C26.8171 44.3666 25.8606 45.8523 25.9037 47.3615V47.3615Z" stroke="black" stroke-width="2.02"/>
<path d="M99.043 95.8436C99.043 95.8436 102.3 92.7429 109.792 87.8193" stroke="black" stroke-width="2.02"/>
<path d="M125.605 44.8843L113.731 58.0516C112.014 59.957 109.105 60.1828 107.114 58.5651C106.043 57.6958 105.396 56.4093 105.336 55.0312C105.276 53.6531 105.809 52.3154 106.801 51.3563L108.972 49.2551C109.055 49.1375 109.149 49.0317 109.243 48.9219L110.811 47.1932L124.296 32.5403C127.621 28.8856 132.573 27.1675 137.447 27.9774L137.647 28.0127" stroke="black" stroke-width="2.02"/>
<path d="M142.328 48.4474H130.45C127.636 48.4474 125.354 46.1658 125.354 43.3514C125.354 40.5369 127.636 38.2554 130.45 38.2554H147.306" stroke="black" stroke-width="2.02"/>
<path d="M133.221 48.4473C133.057 50.5288 132.261 52.0693 131.089 53.1513C128.071 55.8953 122.535 55.5934 118.686 53.7079" stroke="black" stroke-width="2.02"/>
<path d="M110.831 47.1857C107.416 43.0736 108.118 37.4837 110.772 33.1599C121.728 15.269 142.614 26.2882 156.346 33.9988C164.52 38.6108 172.334 43.834 179.721 49.6239C186.259 54.7199 192.312 60.8194 200.167 63.8849C204.871 65.7234 210.426 66.1624 215.107 64.0417" stroke="black" stroke-width="2.02"/>
<path d="M131.089 53.1206C139.375 59.2362 147.286 65.8428 154.782 72.9048" stroke="black" stroke-width="2.02"/>
</svg>
