<svg width="400" height="400" viewBox="0 0 400 400" fill="none" xmlns="http://www.w3.org/2000/svg">
<path d="M73.4664 183.321C86.3672 165.289 105.701 157.115 105.701 157.115C106.332 156.853 103.643 132.149 103.588 130.397C102.772 101.538 107.559 71.5104 129.252 50.6717C156.371 24.639 205.574 19.2451 236.683 41.1775C236.291 40.8874 246.919 32.5104 247.816 31.9733C253.623 28.4692 260.174 26.386 266.938 25.8934C294.159 23.9334 319.121 45.3209 329.333 71.1929C339.544 97.0649 337.2 156.014 318.466 173.015" stroke="#CCDDE2" stroke-width="2.02"/>
<path d="M61.8356 214.603C62.5061 207.501 64.332 200.556 67.2413 194.043C67.5183 193.424 67.8083 192.817 68.1115 192.224" stroke="#CCDDE2" stroke-width="2.02"/>
<path d="M95.4772 289.646C92.3412 286.796 89.4365 283.895 86.7748 280.979" stroke="#CCDDE2" stroke-width="2.02"/>
<path d="M356.8 204.893C356.823 206.853 356.8 208.852 356.705 210.855C356.149 223.246 353.495 236.053 346.862 246.488C345.655 248.413 344.308 250.247 342.833 251.976C328.721 250.114 326.616 235.72 310.297 227.582C290.748 217.809 258.737 221.31 258.737 221.31L274.507 206.763C273.664 162.953 241.501 165.642 241.501 165.642L239.866 169.644C241.107 166.019 242.363 162.639 243.633 159.503L243.704 159.338C258.6 122.341 274.033 117.755 286.04 112.412C288.908 111.731 291.845 111.381 294.793 111.369C325.491 111.205 343.507 142.467 351.386 167.633C353.346 173.905 356.361 187.319 356.764 202.403C356.772 203.211 356.8 204.054 356.8 204.893Z" fill="#2E2E2E"/>
<path d="M374.048 369.094C371.665 372.375 367.733 374.163 363.68 374.163H317.11C313.491 374.214 310.019 372.735 307.549 370.09C307.526 370.09 307.549 370.09 307.549 370.09C307.384 369.923 307.229 369.744 307.087 369.557C305.627 367.749 304.715 365.562 304.456 363.254C304.221 361.133 305.797 359.247 307.929 359.334C309.6 359.398 310.967 360.687 311.128 362.352C311.128 362.52 311.163 362.685 311.187 362.85C311.36 363.806 311.78 364.701 312.406 365.445C313.529 366.771 315.197 367.509 316.934 367.448H363.88C365.58 367.477 367.209 366.761 368.337 365.488C369.615 364.008 370.02 361.965 369.403 360.11L348.435 297.762C348.264 297.284 348.061 296.818 347.827 296.367C345.314 291.057 339.938 287.698 334.064 287.766C325.236 287.872 314.029 287.895 312.975 287.895C289.482 287.809 278.792 287.809 272.912 287.966C273.315 286.521 274.045 285.188 275.045 284.07C275.045 284.07 275.068 284.046 275.068 284.034C276.502 282.506 278.465 281.582 280.556 281.451C289.266 280.738 297.89 279.436 306.267 277.162C321.05 273.156 335.15 266.284 344.946 255.234C349.714 249.885 353.319 243.603 355.53 236.786C357.246 231.374 358.328 225.781 358.752 220.119C358.904 218.331 358.998 216.531 359.035 214.717V214.635C359.035 214.219 359.058 213.792 359.058 213.376C359.111 210.793 358.993 208.21 358.705 205.642C361.265 205.662 363.717 206.677 365.542 208.472C365.702 208.895 365.82 209.332 365.895 209.778C365.965 210.2 366.001 210.627 366 211.056V261.761C366.009 268.756 363.215 275.464 358.243 280.385C354.166 284.422 353.006 290.549 354.938 295.939L375.777 357.946C377.055 361.721 376.409 365.883 374.048 369.094Z" fill="#3FBDF1"/>
<path d="M86.7784 367.53V225.379H95.4769V367.589L86.7784 367.53Z" fill="#2E2E2E"/>
<path d="M258.74 221.288C264.969 220.626 272.174 219.842 279.093 219.999" stroke="black" stroke-width="2.02"/>
<path d="M224.809 227.57C213.778 230.354 203.045 234.372 193.888 241.051C178.522 252.247 171.497 273.132 177.777 291.227C177.777 291.251 202.473 362.489 202.473 362.489H195.974C193.144 362.488 190.432 363.617 188.439 365.625C186.507 367.546 185.554 370.748 185.554 373.688H244.052L221.822 300.972C220.698 297.337 221.371 293.384 223.636 290.326C225.901 287.268 229.487 285.472 233.292 285.488C245.958 285.845 257.721 286.331 270.532 285.774" stroke="black" stroke-width="2.02"/>
<path d="M356.889 211.446V211.368C356.321 196.08 355.553 180.995 351.37 167.62C343.491 142.454 325.475 111.192 294.777 111.357C291.829 111.368 288.892 111.718 286.024 112.399C265.789 117.209 251.735 137.942 243.688 159.326L243.617 159.49C242.849 161.542 242.138 163.588 241.485 165.629C241.042 167.003 240.495 168.34 239.85 169.631C234.804 179.799 224.037 185.83 212.731 184.821C175.57 181.442 126.593 179.514 111.168 205.625" stroke="black" stroke-width="2.02"/>
<path d="M296.079 183.01C290.669 189.54 284.973 195.848 279.086 201.947C267.032 214.444 256.632 227.717 237.926 228.603C223.002 229.321 208.796 223.594 194.684 219.623C179.588 215.377 171.948 211.982 157.879 207.694C153.827 206.464 149.624 205.804 145.39 205.734L131.227 205.844" stroke="black" stroke-width="2.02"/>
<path d="M240.838 363.405C242.187 362.801 243.649 362.49 245.127 362.496H251.642C251.642 362.496 238.024 336.024 227.134 318.404" stroke="black" stroke-width="2.02"/>
<path d="M249.784 285.833L295.334 374.162H243.81H234.464" stroke="black" stroke-width="2.02"/>
<path fill-rule="evenodd" clip-rule="evenodd" d="M374.047 369.092C371.664 372.373 367.732 374.161 363.679 374.161H317.109C313.248 374.161 309.481 372.561 307.074 369.543C305.615 367.735 304.702 365.548 304.444 363.24C304.209 361.119 305.785 359.233 307.917 359.32C309.588 359.384 310.954 360.674 311.116 362.338C311.211 363.477 311.658 364.557 312.394 365.431C313.532 366.736 315.19 367.47 316.921 367.434H363.879C365.58 367.463 367.208 366.747 368.336 365.474C369.615 363.995 370.02 361.951 369.402 360.096L348.434 297.76C346.258 291.71 340.492 287.7 334.063 287.764C325.236 287.87 314.028 287.893 312.974 287.893C286.816 287.811 276.518 287.811 271.061 288.011C270.89 288.01 270.725 287.941 270.605 287.819C270.484 287.697 270.417 287.532 270.418 287.36C270.411 284.94 271.299 282.603 272.911 280.798C272.924 280.789 272.933 280.775 272.935 280.759C274.371 279.234 276.333 278.312 278.423 278.18C287.133 277.466 295.757 276.165 304.134 273.891C318.917 269.885 333.017 263.013 342.813 251.963C347.581 246.613 351.186 240.331 353.397 233.515C355.108 228.105 356.186 222.514 356.607 216.855C356.761 215.062 356.856 213.262 356.89 211.453V211.367C356.89 210.956 356.913 210.528 356.913 210.113C356.966 207.53 356.849 204.946 356.56 202.379C360.825 202.355 365.125 205.456 365.87 209.783C365.941 210.206 365.977 210.633 365.976 211.061V261.759C365.985 268.754 363.191 275.462 358.218 280.383C354.142 284.42 352.981 290.547 354.914 295.937L375.753 357.944C377.037 361.716 376.401 365.877 374.047 369.092V369.092Z" stroke="black" stroke-width="2.02"/>
<rect x="23.5996" y="214.606" width="132.092" height="10.7682" rx="5.38412" stroke="black" stroke-width="2.02"/>
<rect x="63.8776" y="368.203" width="55.0878" height="6.02896" rx="3.01448" stroke="black" stroke-width="2.02"/>
<path fill-rule="evenodd" clip-rule="evenodd" d="M79.9928 209.77V210.311C80.0712 214.031 83.5718 214.6 86.5902 214.623L144.943 214.584C147.499 214.584 149.608 212.624 149.612 210.217V210.115C149.565 207.763 147.511 205.846 144.986 205.842C144.986 205.842 112.341 205.725 87.0566 205.65C86.6019 206.975 85.4494 208.002 84.0108 208.841C82.7732 209.49 81.3896 209.81 79.9928 209.77Z" stroke="black" stroke-width="2.02"/>
<path fill-rule="evenodd" clip-rule="evenodd" d="M47.9037 157.362C47.9159 157.981 48.0932 158.586 48.4173 159.114L75.4653 204.543C76.173 205.647 77.3098 206.406 78.6013 206.636C79.682 206.849 80.802 206.727 81.8117 206.287C83.4699 205.55 84.4264 204.064 84.395 202.559C84.3891 202.37 84.3694 202.181 84.3362 201.995C84.253 201.58 84.0992 201.182 83.8815 200.819L56.8335 155.39C55.6575 153.402 52.7802 152.622 50.4674 153.645C48.8171 154.367 47.8606 155.852 47.9037 157.362V157.362Z" stroke="black" stroke-width="2.02"/>
<path d="M121.043 205.844C121.043 205.844 124.3 202.743 131.792 197.819" stroke="black" stroke-width="2.02"/>
<path d="M147.605 154.884L135.731 168.052C134.014 169.957 131.105 170.183 129.114 168.565C128.043 167.696 127.396 166.409 127.336 165.031C127.276 163.653 127.809 162.315 128.801 161.356L130.972 159.255C131.055 159.138 131.149 159.032 131.243 158.922L132.811 157.193L146.296 142.54C149.621 138.886 154.573 137.167 159.447 137.977L159.647 138.013" stroke="black" stroke-width="2.02"/>
<path d="M164.328 158.447H152.45C149.636 158.447 147.354 156.166 147.354 153.351C147.354 150.537 149.636 148.255 152.45 148.255H169.306" stroke="black" stroke-width="2.02"/>
<path d="M155.221 158.447C155.057 160.529 154.261 162.069 153.089 163.151C150.071 165.895 144.535 165.593 140.686 163.708" stroke="black" stroke-width="2.02"/>
<path d="M132.831 157.186C129.416 153.074 130.118 147.484 132.772 143.16C143.728 125.269 164.614 136.288 178.346 143.999C186.52 148.611 194.334 153.834 201.721 159.624C208.259 164.72 214.312 170.819 222.167 173.885C226.871 175.723 232.426 176.162 237.107 174.042" stroke="black" stroke-width="2.02"/>
<path d="M153.089 163.121C161.375 169.236 169.286 175.843 176.782 182.905" stroke="black" stroke-width="2.02"/>
<path d="M253.904 66.9467C255.887 68.7578 258.933 68.8558 261.454 68.6127C264.676 68.3187 267.867 67.5386 271.022 66.8801L272.939 66.7821H272.967C273.709 66.7893 274.418 67.0912 274.938 67.6212C275.457 68.1513 275.745 68.8661 275.738 69.6084C275.782 73.7454 275.369 77.8746 274.507 81.9211L278.18 83.9086C278.654 82.5836 278.121 80.6746 279.246 80.5295C279.968 79.185 281.042 78.3108 282.727 79.3104C286.028 81.2704 287.329 87.0289 284.15 89.667L286.189 93.4773C287.654 96.2317 290.863 97.5651 293.848 96.6603L291.767 92.0582C296.651 92.9246 300.069 86.829 298.58 83.1089C297.565 80.553 297.616 78.5656 298.972 76.0803C299.062 75.9118 298.141 75.6883 298.219 75.5158C298.266 73.693 297.761 71.7409 296.882 70.8118C295.338 69.1498 292.229 68.8518 292.864 66.3274C293.147 65.2286 293.251 64.0918 293.174 62.9601C292.839 59.966 291.225 57.2632 288.748 55.5474C286.177 53.8578 283.3 55.3906 280.552 55.3474C277.216 55.3122 274.825 52.4819 271.328 52.4388C269.588 52.4114 268.192 53.0895 266.702 53.9323C265.456 54.6497 264.229 55.3984 263.037 56.2098C261.846 57.0213 260.787 57.723 259.364 57.7269C257.51 57.7504 255.719 56.5744 253.853 57.1232C252.909 57.377 252.08 57.9437 251.501 58.7304C250.909 61.6234 251.979 65.2023 253.904 66.9467Z" fill="#3FBDF1"/>
<path d="M278.196 83.48C278.435 82.4587 278.788 81.4674 279.247 80.5243C279.968 79.1797 281.046 78.3056 282.728 79.3052C286.028 81.2652 287.33 87.0236 284.151 89.6618L286.189 93.472C287.654 96.2264 290.863 97.5598 293.849 96.6551" stroke="black" stroke-width="2.02" stroke-linecap="round" stroke-linejoin="round"/>
<path d="M291.767 92.0522L293.841 96.6622C294.362 97.7637 295.856 101.151 297.42 104.671C298.533 107.191 299.694 109.786 300.556 111.695" stroke="black" stroke-width="2.02" stroke-linecap="round" stroke-linejoin="round"/>
<path d="M258.177 75.4987C258.177 75.4987 264.288 73.9777 266.958 78.6111" stroke="black" stroke-width="2.02"/>
<path d="M259.976 89.3311C258.329 89.7819 256.115 90.1857 254.844 88.751L257.612 82.9258C258.284 81.4973 258.45 79.8826 258.082 78.3473C257.479 75.764 255.97 71.8401 257.588 68.4336" stroke="black" stroke-width="2.02"/>
<ellipse cx="262.45" cy="80.5357" rx="1.6268" ry="1.91296" transform="rotate(-58.92 262.45 80.5357)" fill="black"/>
<path d="M273.006 118.199L271.556 102.104" stroke="black" stroke-width="2.02"/>
<path d="M278.18 83.902C278.18 83.7609 278.18 83.6159 278.18 83.4747C278.188 83.3233 278.188 83.1715 278.18 83.02" stroke="black" stroke-width="2.02" stroke-linecap="round" stroke-linejoin="round"/>
<path d="M278.184 83.9054L276.922 83.2273L274.507 81.9141" stroke="black" stroke-width="2.02" stroke-linecap="round" stroke-linejoin="round"/>
<path d="M268.078 89.7456C268.078 89.7456 267.957 93.8224 263.296 95.5002" stroke="black" stroke-width="2.02"/>
<path d="M291.767 92.0506C296.651 92.9169 300.069 86.8213 298.58 83.1012C297.565 80.5454 297.615 78.558 298.972 76.0727C299.062 75.9041 299.136 75.7395 299.215 75.5748C300.222 73.3522 299.866 71.1492 298.282 69.2597C296.781 67.4722 294.519 66.845 295.169 64.2382C295.462 63.1065 295.57 61.9351 295.491 60.769C295.149 57.6896 293.491 54.909 290.944 53.1446C288.302 51.3923 285.326 52.9799 282.48 52.9368C279.054 52.8859 276.581 49.9694 272.986 49.9263C271.187 49.9263 269.736 50.5966 268.208 51.4668C266.922 52.2077 265.648 52.9878 264.433 53.8188C263.217 54.6499 262.081 55.3868 260.638 55.3868C258.725 55.3868 256.879 54.2108 254.966 54.7596C253.053 55.3084 251.916 56.8921 251.54 58.7267C250.928 61.604 251.998 65.1986 253.923 66.9587C255.907 68.7697 258.953 68.8677 261.473 68.6247C264.695 68.3307 267.886 67.5506 271.042 66.892L272.959 66.794H272.986C273.728 66.8013 274.437 67.1031 274.957 67.6332C275.477 68.1632 275.765 68.878 275.758 69.6204C275.801 73.7574 275.388 77.8866 274.527 81.9331" stroke="black" stroke-width="2.02"/>
<path d="M278.921 96.5116C278.921 96.5116 271.638 106.186 265.166 104.018C258.694 101.851 258.365 89.875 258.365 89.875" stroke="black" stroke-width="2.02" stroke-linecap="round" stroke-linejoin="round"/>
<path d="M86.7783 367.528V225.377H95.4768V367.587" stroke="black" stroke-width="2.02"/>
<circle cx="94.7834" cy="128.62" r="14.0414" fill="#3FBDF1"/>
<path d="M89.2913 132.242C88.8807 131.961 88.5158 131.619 88.2094 131.227C87.0877 129.838 87.1803 127.83 88.425 126.55C89.2205 125.731 90.3535 125.332 91.4865 125.472C91.2322 123.875 92.0667 122.302 93.532 121.617C94.9974 120.932 96.7393 121.301 97.8017 122.52C98.8953 123.759 99.4089 125.602 99.6009 127.224C99.7002 128.072 99.7134 128.927 99.6401 129.776C99.6049 130.204 99.452 132.669 99.0521 132.826C96.4101 133.838 91.906 134.057 89.2913 132.242Z" fill="white"/>
<circle cx="193.853" cy="131.824" r="7.5264" fill="#3FBDF1"/>
<path d="M193.336 128.336C193.565 128.198 193.815 128.098 194.077 128.042C195.007 127.819 195.958 128.323 196.295 129.218C196.51 129.791 196.445 130.432 196.119 130.951C196.932 131.209 197.485 131.965 197.485 132.819C197.485 133.672 196.932 134.428 196.119 134.686C195.221 134.883 194.286 134.815 193.426 134.49C192.993 134.344 192.575 134.155 192.179 133.926C191.979 133.812 190.815 133.177 190.835 132.946C190.948 131.425 191.87 129.191 193.336 128.336Z" fill="white"/>
<path d="M135.496 123.239C136.34 123.942 137.281 124.519 138.291 124.952C142.074 126.53 146.409 126.002 149.702 123.56C150.957 122.603 152.054 121.282 153.352 120.322C154.257 119.613 155.344 119.172 156.488 119.052C156.868 119.063 157.245 118.983 157.589 118.821C158.459 118.28 157.432 117.382 157.342 116.747C157.221 115.731 157.476 114.706 158.06 113.866C161.13 109.288 160.548 103.18 156.67 99.2636C152.791 95.3469 146.69 94.706 142.082 97.7311C139.875 99.1776 138.236 101.322 136.574 103.372C135.108 105.179 133.575 106.959 132.501 109.025C129.977 113.881 131.451 119.863 135.496 123.239Z" fill="#3FBDF1"/>
<circle cx="150.466" cy="104.717" r="2.51272" fill="white"/>
<circle cx="145.606" cy="110.66" r="2.51272" fill="white"/>
<circle cx="141.047" cy="116.236" r="2.51272" fill="white"/>
<path opacity="0.46" d="M213.72 92.7061C213.323 94.6993 212.046 96.4063 210.247 97.3513L189.291 108.484C187.694 109.336 185.825 109.517 184.095 108.988C182.364 108.458 180.917 107.261 180.071 105.662L163.368 74.2116C161.605 70.8903 162.867 66.7693 166.186 65.0035L187.158 53.8746C190.314 52.1969 194.669 53.4826 196.362 56.6931L213.069 88.1315C213.821 89.5312 214.052 91.1523 213.72 92.7061Z" fill="#3FBDF1"/>
<path d="M207.499 90.3231L187.064 82.534C186.526 82.3255 186.219 81.7576 186.339 81.1934L191.078 59.3943C191.188 58.9196 191.579 58.562 192.062 58.4951C192.544 58.4281 193.018 58.6657 193.253 59.0924L208.949 88.6727C209.176 89.1041 209.114 89.6309 208.792 89.9971C208.47 90.3634 207.956 90.493 207.499 90.3231Z" fill="white"/>
<path opacity="0.46" d="M238.024 114.592C238.892 115.215 239.431 116.198 239.49 117.265L240.274 129.727C240.334 130.677 240.013 131.612 239.383 132.325C238.753 133.039 237.865 133.472 236.914 133.529L218.212 134.682C216.239 134.8 214.541 133.3 214.417 131.326L213.653 118.857C213.583 116.902 215.056 115.234 217.005 115.062L235.703 113.886C236.536 113.84 237.358 114.09 238.024 114.592Z" fill="#3FBDF1"/>
<path d="M235.538 117.052L227.353 125.155C227.139 125.358 226.81 125.381 226.569 125.21L217.161 118.193C216.956 118.038 216.869 117.771 216.943 117.524C217.017 117.278 217.237 117.103 217.495 117.088L235.088 116.002C235.339 115.995 235.57 116.143 235.669 116.374C235.768 116.606 235.716 116.874 235.538 117.052Z" fill="white"/>
<g opacity="0.46">
<path d="M111.016 183.07C109.789 183.272 108.547 183.377 107.304 183.384C95.3947 183.384 95.7946 172.341 95.7946 172.341L105.661 174.474C104.904 172.619 105.119 170.509 106.234 168.845C108.491 165.544 113.736 167.241 113.736 167.241L116.998 165.14L116.292 169.06L120.663 168.323L118.417 170.922C121.435 173.823 125.281 182.655 116.006 187.245C106.731 191.835 102.729 186.336 102.729 186.336L107.304 183.388L111.016 183.07Z" fill="#3FBDF1"/>
</g>
<circle cx="110.82" cy="170.843" r="1.42688" fill="white"/>
<path d="M135.692 374.163H298.87" stroke="black" stroke-width="1.26"/>
</svg>
