<svg width="141" height="50" viewBox="0 0 141 50" fill="none" xmlns="http://www.w3.org/2000/svg">
<path d="M63.89 25.5C64.4233 25.5 64.89 25.4367 65.29 25.31C65.69 25.1767 66.0233 24.9933 66.29 24.76C66.5567 24.5267 66.7567 24.25 66.89 23.93C67.0233 23.6033 67.09 23.2433 67.09 22.85C67.09 22.0633 66.83 21.4633 66.31 21.05C65.79 20.6367 65.0033 20.43 63.95 20.43H62.05V25.5H63.89ZM70.67 33H68.58C68.1667 33 67.8667 32.84 67.68 32.52L64.32 27.67C64.2067 27.5033 64.0833 27.3833 63.95 27.31C63.8167 27.2367 63.6167 27.2 63.35 27.2H62.05V33H59.71V18.6H63.95C64.8967 18.6 65.71 18.6967 66.39 18.89C67.0767 19.0833 67.64 19.36 68.08 19.72C68.52 20.0733 68.8433 20.5 69.05 21C69.2633 21.5 69.37 22.0567 69.37 22.67C69.37 23.17 69.2933 23.6367 69.14 24.07C68.9933 24.5033 68.7767 24.8967 68.49 25.25C68.21 25.6033 67.8633 25.91 67.45 26.17C67.0367 26.43 66.5667 26.6333 66.04 26.78C66.3267 26.9533 66.5733 27.1967 66.78 27.51L70.67 33ZM78.0313 26.75C78.0313 26.39 77.9779 26.0567 77.8713 25.75C77.7713 25.4367 77.6213 25.1667 77.4213 24.94C77.2213 24.7067 76.9713 24.5267 76.6713 24.4C76.3779 24.2667 76.0379 24.2 75.6513 24.2C74.8713 24.2 74.2579 24.4233 73.8113 24.87C73.3646 25.3167 73.0813 25.9433 72.9613 26.75H78.0313ZM72.9013 28.07C72.9279 28.65 73.0179 29.1533 73.1713 29.58C73.3246 30 73.5279 30.35 73.7813 30.63C74.0413 30.91 74.3479 31.12 74.7013 31.26C75.0613 31.3933 75.4613 31.46 75.9013 31.46C76.3213 31.46 76.6846 31.4133 76.9913 31.32C77.2979 31.22 77.5646 31.1133 77.7913 31C78.0179 30.88 78.2113 30.7733 78.3713 30.68C78.5313 30.58 78.6779 30.53 78.8113 30.53C78.9846 30.53 79.1179 30.5967 79.2113 30.73L79.8213 31.52C79.5679 31.82 79.2813 32.0733 78.9613 32.28C78.6413 32.4867 78.3013 32.6567 77.9413 32.79C77.5813 32.9167 77.2113 33.0067 76.8313 33.06C76.4513 33.12 76.0813 33.15 75.7213 33.15C75.0146 33.15 74.3579 33.0333 73.7513 32.8C73.1513 32.56 72.6279 32.21 72.1813 31.75C71.7413 31.29 71.3946 30.72 71.1413 30.04C70.8946 29.36 70.7713 28.5767 70.7713 27.69C70.7713 26.9833 70.8813 26.3233 71.1013 25.71C71.3279 25.0967 71.6479 24.5633 72.0613 24.11C72.4813 23.6567 72.9879 23.3 73.5813 23.04C74.1813 22.7733 74.8579 22.64 75.6113 22.64C76.2379 22.64 76.8179 22.7433 77.3513 22.95C77.8846 23.15 78.3446 23.4467 78.7313 23.84C79.1179 24.2333 79.4179 24.7167 79.6313 25.29C79.8513 25.8567 79.9613 26.5033 79.9613 27.23C79.9613 27.5633 79.9246 27.7867 79.8513 27.9C79.7779 28.0133 79.6446 28.07 79.4513 28.07H72.9013ZM91.9509 19.47C91.9509 19.6033 91.9276 19.7333 91.8809 19.86C91.8409 19.9867 91.7843 20.1067 91.7109 20.22L83.9809 31.11H91.8009V33H80.9209V32.08C80.9209 31.9533 80.9409 31.8367 80.9809 31.73C81.0209 31.6167 81.0743 31.51 81.1409 31.41L88.9009 20.49H81.3509V18.6H91.9509V19.47ZM100.082 26.75C100.082 26.39 100.029 26.0567 99.922 25.75C99.822 25.4367 99.672 25.1667 99.472 24.94C99.272 24.7067 99.022 24.5267 98.722 24.4C98.4287 24.2667 98.0887 24.2 97.702 24.2C96.922 24.2 96.3087 24.4233 95.862 24.87C95.4154 25.3167 95.132 25.9433 95.012 26.75H100.082ZM94.952 28.07C94.9787 28.65 95.0687 29.1533 95.222 29.58C95.3754 30 95.5787 30.35 95.832 30.63C96.092 30.91 96.3987 31.12 96.752 31.26C97.112 31.3933 97.512 31.46 97.952 31.46C98.372 31.46 98.7354 31.4133 99.042 31.32C99.3487 31.22 99.6154 31.1133 99.842 31C100.069 30.88 100.262 30.7733 100.422 30.68C100.582 30.58 100.729 30.53 100.862 30.53C101.035 30.53 101.169 30.5967 101.262 30.73L101.872 31.52C101.619 31.82 101.332 32.0733 101.012 32.28C100.692 32.4867 100.352 32.6567 99.992 32.79C99.632 32.9167 99.262 33.0067 98.882 33.06C98.502 33.12 98.132 33.15 97.772 33.15C97.0654 33.15 96.4087 33.0333 95.802 32.8C95.202 32.56 94.6787 32.21 94.232 31.75C93.792 31.29 93.4454 30.72 93.192 30.04C92.9454 29.36 92.822 28.5767 92.822 27.69C92.822 26.9833 92.932 26.3233 93.152 25.71C93.3787 25.0967 93.6987 24.5633 94.112 24.11C94.532 23.6567 95.0387 23.3 95.632 23.04C96.232 22.7733 96.9087 22.64 97.662 22.64C98.2887 22.64 98.8687 22.7433 99.402 22.95C99.9354 23.15 100.395 23.4467 100.782 23.84C101.169 24.2333 101.469 24.7167 101.682 25.29C101.902 25.8567 102.012 26.5033 102.012 27.23C102.012 27.5633 101.975 27.7867 101.902 27.9C101.829 28.0133 101.695 28.07 101.502 28.07H94.952ZM109.467 28.54C108.7 28.5667 108.054 28.63 107.527 28.73C107 28.8233 106.574 28.9467 106.247 29.1C105.92 29.2467 105.684 29.4233 105.537 29.63C105.397 29.8367 105.327 30.0633 105.327 30.31C105.327 30.55 105.364 30.7567 105.437 30.93C105.517 31.0967 105.624 31.2367 105.757 31.35C105.897 31.4567 106.057 31.5367 106.237 31.59C106.424 31.6367 106.627 31.66 106.847 31.66C107.407 31.66 107.887 31.5567 108.287 31.35C108.694 31.1367 109.087 30.83 109.467 30.43V28.54ZM103.767 24.22C104.92 23.1467 106.294 22.61 107.887 22.61C108.474 22.61 108.994 22.7067 109.447 22.9C109.907 23.0867 110.29 23.3533 110.597 23.7C110.91 24.0467 111.147 24.46 111.307 24.94C111.474 25.4133 111.557 25.94 111.557 26.52V33H110.597C110.39 33 110.234 32.97 110.127 32.91C110.02 32.8433 109.93 32.7133 109.857 32.52L109.647 31.69C109.387 31.9233 109.13 32.1333 108.877 32.32C108.624 32.5 108.36 32.6533 108.087 32.78C107.82 32.9067 107.53 33 107.217 33.06C106.91 33.1267 106.57 33.16 106.197 33.16C105.784 33.16 105.397 33.1033 105.037 32.99C104.684 32.8767 104.377 32.7067 104.117 32.48C103.857 32.2467 103.65 31.96 103.497 31.62C103.35 31.28 103.277 30.88 103.277 30.42C103.277 30.0267 103.38 29.6433 103.587 29.27C103.8 28.8967 104.147 28.5633 104.627 28.27C105.114 27.97 105.75 27.7233 106.537 27.53C107.33 27.3367 108.307 27.2267 109.467 27.2V26.52C109.467 25.7867 109.31 25.24 108.997 24.88C108.684 24.52 108.224 24.34 107.617 24.34C107.204 24.34 106.857 24.3933 106.577 24.5C106.297 24.6 106.054 24.71 105.847 24.83C105.64 24.95 105.457 25.0633 105.297 25.17C105.137 25.27 104.967 25.32 104.787 25.32C104.64 25.32 104.514 25.2833 104.407 25.21C104.307 25.13 104.224 25.0333 104.157 24.92L103.767 24.22ZM116.106 24.69C116.426 24.0433 116.812 23.5367 117.266 23.17C117.719 22.7967 118.262 22.61 118.896 22.61C119.116 22.61 119.322 22.6367 119.516 22.69C119.709 22.7367 119.882 22.81 120.036 22.91L119.886 24.53C119.859 24.6433 119.816 24.7233 119.756 24.77C119.702 24.81 119.629 24.83 119.536 24.83C119.436 24.83 119.292 24.8133 119.106 24.78C118.919 24.74 118.722 24.72 118.516 24.72C118.216 24.72 117.949 24.7633 117.716 24.85C117.489 24.9367 117.282 25.0633 117.096 25.23C116.916 25.3967 116.756 25.6 116.616 25.84C116.476 26.08 116.346 26.3533 116.226 26.66V33H114.076V22.8H115.326C115.552 22.8 115.709 22.8433 115.796 22.93C115.882 23.01 115.942 23.1533 115.976 23.36L116.106 24.69ZM128.317 24.8C128.25 24.8867 128.187 24.9533 128.127 25C128.067 25.0467 127.98 25.07 127.867 25.07C127.754 25.07 127.634 25.03 127.507 24.95C127.387 24.87 127.24 24.7833 127.067 24.69C126.9 24.59 126.697 24.5 126.457 24.42C126.217 24.34 125.917 24.3 125.557 24.3C125.09 24.3 124.68 24.3833 124.327 24.55C123.98 24.7167 123.687 24.9567 123.447 25.27C123.214 25.5767 123.037 25.9533 122.917 26.4C122.804 26.84 122.747 27.3367 122.747 27.89C122.747 28.4633 122.81 28.9733 122.937 29.42C123.064 29.8667 123.244 30.2433 123.477 30.55C123.717 30.8567 124.004 31.09 124.337 31.25C124.677 31.41 125.057 31.49 125.477 31.49C125.89 31.49 126.227 31.44 126.487 31.34C126.747 31.24 126.964 31.13 127.137 31.01C127.31 30.89 127.457 30.78 127.577 30.68C127.704 30.58 127.837 30.53 127.977 30.53C128.15 30.53 128.284 30.5967 128.377 30.73L128.987 31.52C128.74 31.82 128.467 32.0733 128.167 32.28C127.867 32.4867 127.55 32.6567 127.217 32.79C126.884 32.9167 126.537 33.0067 126.177 33.06C125.817 33.12 125.454 33.15 125.087 33.15C124.454 33.15 123.86 33.0333 123.307 32.8C122.76 32.56 122.28 32.2167 121.867 31.77C121.46 31.3167 121.137 30.7667 120.897 30.12C120.664 29.4667 120.547 28.7233 120.547 27.89C120.547 27.1367 120.654 26.44 120.867 25.8C121.08 25.1533 121.39 24.5967 121.797 24.13C122.21 23.6633 122.72 23.3 123.327 23.04C123.934 22.7733 124.634 22.64 125.427 22.64C126.167 22.64 126.817 22.76 127.377 23C127.944 23.24 128.447 23.58 128.887 24.02L128.317 24.8ZM132.866 24.01C133.286 23.5967 133.746 23.2667 134.246 23.02C134.746 22.7667 135.33 22.64 135.996 22.64C136.556 22.64 137.046 22.7333 137.466 22.92C137.893 23.1067 138.25 23.37 138.536 23.71C138.83 24.05 139.05 24.46 139.196 24.94C139.343 25.4133 139.416 25.9367 139.416 26.51V33H137.276V26.51C137.276 25.8233 137.116 25.29 136.796 24.91C136.483 24.53 136.003 24.34 135.356 24.34C134.876 24.34 134.43 24.45 134.016 24.67C133.61 24.89 133.226 25.19 132.866 25.57V33H130.716V18.2H132.866V24.01Z" fill="#00B4D8"/>
<circle cx="25" cy="25" r="25" fill="url(#paint0_linear)"/>
<path d="M20.89 21.5C21.4233 21.5 21.89 21.4367 22.29 21.31C22.69 21.1767 23.0233 20.9933 23.29 20.76C23.5567 20.5267 23.7567 20.25 23.89 19.93C24.0233 19.6033 24.09 19.2433 24.09 18.85C24.09 18.0633 23.83 17.4633 23.31 17.05C22.79 16.6367 22.0033 16.43 20.95 16.43H19.05V21.5H20.89ZM27.67 29H25.58C25.1667 29 24.8667 28.84 24.68 28.52L21.32 23.67C21.2067 23.5033 21.0833 23.3833 20.95 23.31C20.8167 23.2367 20.6167 23.2 20.35 23.2H19.05V29H16.71V14.6H20.95C21.8967 14.6 22.71 14.6967 23.39 14.89C24.0767 15.0833 24.64 15.36 25.08 15.72C25.52 16.0733 25.8433 16.5 26.05 17C26.2633 17.5 26.37 18.0567 26.37 18.67C26.37 19.17 26.2933 19.6367 26.14 20.07C25.9933 20.5033 25.7767 20.8967 25.49 21.25C25.21 21.6033 24.8633 21.91 24.45 22.17C24.0367 22.43 23.5667 22.6333 23.04 22.78C23.3267 22.9533 23.5733 23.1967 23.78 23.51L27.67 29Z" fill="white"/>
<path d="M33.49 23.47C33.49 23.6033 33.4667 23.7333 33.42 23.86C33.38 23.9867 33.3233 24.1067 33.25 24.22L25.52 35.11H33.34V37H22.46V36.08C22.46 35.9533 22.48 35.8367 22.52 35.73C22.56 35.6167 22.6133 35.51 22.68 35.41L30.44 24.49H22.89V22.6H33.49V23.47Z" fill="white"/>
<defs>
<linearGradient id="paint0_linear" x1="11.5" y1="51.5" x2="47.5" y2="-2.5" gradientUnits="userSpaceOnUse">
<stop stop-color="#48CAE4"/>
<stop offset="1" stop-color="#C5ECF9"/>
</linearGradient>
</defs>
</svg>
