<svg width="52" height="11" viewBox="0 0 52 11" fill="none" xmlns="http://www.w3.org/2000/svg">
<path d="M2.8285 5.125C3.17517 5.125 3.4785 5.08383 3.7385 5.0015C3.9985 4.91483 4.21517 4.79567 4.3885 4.644C4.56183 4.49233 4.69183 4.3125 4.7785 4.1045C4.86517 3.89217 4.9085 3.65817 4.9085 3.4025C4.9085 2.89117 4.7395 2.50117 4.4015 2.2325C4.0635 1.96383 3.55217 1.8295 2.8675 1.8295H1.6325V5.125H2.8285ZM7.2355 10H5.877C5.60833 10 5.41333 9.896 5.292 9.688L3.108 6.5355C3.03433 6.42717 2.95417 6.34917 2.8675 6.3015C2.78083 6.25383 2.65083 6.23 2.4775 6.23H1.6325V10H0.1115V0.64H2.8675C3.48283 0.64 4.0115 0.702833 4.4535 0.8285C4.89983 0.954166 5.266 1.134 5.552 1.368C5.838 1.59767 6.04817 1.875 6.1825 2.2C6.32117 2.525 6.3905 2.88683 6.3905 3.2855C6.3905 3.6105 6.34067 3.91383 6.241 4.1955C6.14567 4.47717 6.00483 4.73283 5.8185 4.9625C5.6365 5.19217 5.41117 5.3915 5.1425 5.5605C4.87383 5.7295 4.56833 5.86167 4.226 5.957C4.41233 6.06967 4.57267 6.22783 4.707 6.4315L7.2355 10ZM12.0203 5.9375C12.0203 5.7035 11.9856 5.48683 11.9163 5.2875C11.8513 5.08383 11.7538 4.90833 11.6238 4.761C11.4938 4.60933 11.3313 4.49233 11.1363 4.41C10.9456 4.32333 10.7246 4.28 10.4733 4.28C9.96631 4.28 9.56765 4.42517 9.27731 4.7155C8.98698 5.00583 8.80281 5.41317 8.72481 5.9375H12.0203ZM8.68581 6.7955C8.70315 7.1725 8.76165 7.49967 8.86131 7.777C8.96098 8.05 9.09315 8.2775 9.25781 8.4595C9.42681 8.6415 9.62615 8.778 9.85581 8.869C10.0898 8.95567 10.3498 8.999 10.6358 8.999C10.9088 8.999 11.145 8.96867 11.3443 8.908C11.5436 8.843 11.717 8.77367 11.8643 8.7C12.0116 8.622 12.1373 8.55267 12.2413 8.492C12.3453 8.427 12.4406 8.3945 12.5273 8.3945C12.64 8.3945 12.7266 8.43783 12.7873 8.5245L13.1838 9.038C13.0191 9.233 12.8328 9.39767 12.6248 9.532C12.4168 9.66633 12.1958 9.77683 11.9618 9.8635C11.7278 9.94583 11.4873 10.0043 11.2403 10.039C10.9933 10.078 10.7528 10.0975 10.5188 10.0975C10.0595 10.0975 9.63265 10.0217 9.23831 9.87C8.84831 9.714 8.50815 9.4865 8.21781 9.1875C7.93181 8.8885 7.70648 8.518 7.54181 8.076C7.38148 7.634 7.30131 7.12483 7.30131 6.5485C7.30131 6.08917 7.37281 5.66017 7.51581 5.2615C7.66315 4.86283 7.87115 4.51617 8.13981 4.2215C8.41281 3.92683 8.74215 3.695 9.12781 3.526C9.51781 3.35267 9.95765 3.266 10.4473 3.266C10.8546 3.266 11.2316 3.33317 11.5783 3.4675C11.925 3.5975 12.224 3.79033 12.4753 4.046C12.7266 4.30167 12.9216 4.61583 13.0603 4.9885C13.2033 5.35683 13.2748 5.77717 13.2748 6.2495C13.2748 6.46617 13.251 6.61133 13.2033 6.685C13.1556 6.75867 13.069 6.7955 12.9433 6.7955H8.68581ZM21.0681 1.2055C21.0681 1.29217 21.0529 1.37667 21.0226 1.459C20.9966 1.54133 20.9598 1.61933 20.9121 1.693L15.8876 8.7715H20.9706V10H13.8986V9.402C13.8986 9.31967 13.9116 9.24383 13.9376 9.1745C13.9636 9.10083 13.9983 9.0315 14.0416 8.9665L19.0856 1.8685H14.1781V0.64H21.0681V1.2055ZM26.3533 5.9375C26.3533 5.7035 26.3187 5.48683 26.2493 5.2875C26.1843 5.08383 26.0868 4.90833 25.9568 4.761C25.8268 4.60933 25.6643 4.49233 25.4693 4.41C25.2787 4.32333 25.0577 4.28 24.8063 4.28C24.2993 4.28 23.9007 4.42517 23.6103 4.7155C23.32 5.00583 23.1358 5.41317 23.0578 5.9375H26.3533ZM23.0188 6.7955C23.0362 7.1725 23.0947 7.49967 23.1943 7.777C23.294 8.05 23.4262 8.2775 23.5908 8.4595C23.7598 8.6415 23.9592 8.778 24.1888 8.869C24.4228 8.95567 24.6828 8.999 24.9688 8.999C25.2418 8.999 25.478 8.96867 25.6773 8.908C25.8767 8.843 26.05 8.77367 26.1973 8.7C26.3447 8.622 26.4703 8.55267 26.5743 8.492C26.6783 8.427 26.7737 8.3945 26.8603 8.3945C26.973 8.3945 27.0597 8.43783 27.1203 8.5245L27.5168 9.038C27.3522 9.233 27.1658 9.39767 26.9578 9.532C26.7498 9.66633 26.5288 9.77683 26.2948 9.8635C26.0608 9.94583 25.8203 10.0043 25.5733 10.039C25.3263 10.078 25.0858 10.0975 24.8518 10.0975C24.3925 10.0975 23.9657 10.0217 23.5713 9.87C23.1813 9.714 22.8412 9.4865 22.5508 9.1875C22.2648 8.8885 22.0395 8.518 21.8748 8.076C21.7145 7.634 21.6343 7.12483 21.6343 6.5485C21.6343 6.08917 21.7058 5.66017 21.8488 5.2615C21.9962 4.86283 22.2042 4.51617 22.4728 4.2215C22.7458 3.92683 23.0752 3.695 23.4608 3.526C23.8508 3.35267 24.2907 3.266 24.7803 3.266C25.1877 3.266 25.5647 3.33317 25.9113 3.4675C26.258 3.5975 26.557 3.79033 26.8083 4.046C27.0597 4.30167 27.2547 4.61583 27.3933 4.9885C27.5363 5.35683 27.6078 5.77717 27.6078 6.2495C27.6078 6.46617 27.584 6.61133 27.5363 6.685C27.4887 6.75867 27.402 6.7955 27.2763 6.7955H23.0188ZM32.4536 7.101C31.9552 7.11833 31.5349 7.1595 31.1926 7.2245C30.8502 7.28517 30.5729 7.36533 30.3606 7.465C30.1482 7.56033 29.9944 7.67517 29.8991 7.8095C29.8081 7.94383 29.7626 8.09117 29.7626 8.2515C29.7626 8.4075 29.7864 8.54183 29.8341 8.6545C29.8861 8.76283 29.9554 8.85383 30.0421 8.9275C30.1331 8.99683 30.2371 9.04883 30.3541 9.0835C30.4754 9.11383 30.6076 9.129 30.7506 9.129C31.1146 9.129 31.4266 9.06183 31.6866 8.9275C31.9509 8.78883 32.2066 8.5895 32.4536 8.3295V7.101ZM28.7486 4.293C29.4982 3.59533 30.3909 3.2465 31.4266 3.2465C31.8079 3.2465 32.1459 3.30933 32.4406 3.435C32.7396 3.55633 32.9887 3.72967 33.1881 3.955C33.3917 4.18033 33.5456 4.449 33.6496 4.761C33.7579 5.06867 33.8121 5.411 33.8121 5.788V10H33.1881C33.0537 10 32.9519 9.9805 32.8826 9.9415C32.8132 9.89817 32.7547 9.81367 32.7071 9.688L32.5706 9.1485C32.4016 9.30017 32.2347 9.43667 32.0701 9.558C31.9054 9.675 31.7342 9.77467 31.5566 9.857C31.3832 9.93933 31.1947 10 30.9911 10.039C30.7917 10.0823 30.5707 10.104 30.3281 10.104C30.0594 10.104 29.8081 10.0672 29.5741 9.9935C29.3444 9.91983 29.1451 9.80933 28.9761 9.662C28.8071 9.51033 28.6727 9.324 28.5731 9.103C28.4777 8.882 28.4301 8.622 28.4301 8.323C28.4301 8.06733 28.4972 7.81817 28.6316 7.5755C28.7702 7.33283 28.9956 7.11617 29.3076 6.9255C29.6239 6.7305 30.0377 6.57017 30.5491 6.4445C31.0647 6.31883 31.6996 6.24733 32.4536 6.23V5.788C32.4536 5.31133 32.3517 4.956 32.1481 4.722C31.9444 4.488 31.6454 4.371 31.2511 4.371C30.9824 4.371 30.7571 4.40567 30.5751 4.475C30.3931 4.54 30.2349 4.6115 30.1006 4.6895C29.9662 4.7675 29.8471 4.84117 29.7431 4.9105C29.6391 4.9755 29.5286 5.008 29.4116 5.008C29.3162 5.008 29.2339 4.98417 29.1646 4.9365C29.0996 4.8845 29.0454 4.82167 29.0021 4.748L28.7486 4.293ZM36.7687 4.5985C36.9767 4.17817 37.228 3.84883 37.5227 3.6105C37.8173 3.36783 38.1705 3.2465 38.5822 3.2465C38.7252 3.2465 38.8595 3.26383 38.9852 3.2985C39.1108 3.32883 39.2235 3.3765 39.3232 3.4415L39.2257 4.4945C39.2083 4.56817 39.1802 4.62017 39.1412 4.6505C39.1065 4.6765 39.0588 4.6895 38.9982 4.6895C38.9332 4.6895 38.84 4.67867 38.7187 4.657C38.5973 4.631 38.4695 4.618 38.3352 4.618C38.1402 4.618 37.9668 4.64617 37.8152 4.7025C37.6678 4.75883 37.5335 4.84117 37.4122 4.9495C37.2952 5.05783 37.1912 5.19 37.1002 5.346C37.0092 5.502 36.9247 5.67967 36.8467 5.879V10H35.4492V3.37H36.2617C36.409 3.37 36.5108 3.39817 36.5672 3.4545C36.6235 3.5065 36.6625 3.59967 36.6842 3.734L36.7687 4.5985ZM44.706 4.67C44.6626 4.72633 44.6215 4.76967 44.5825 4.8C44.5435 4.83033 44.4871 4.8455 44.4135 4.8455C44.3398 4.8455 44.2618 4.8195 44.1795 4.7675C44.1015 4.7155 44.0061 4.65917 43.8935 4.5985C43.7851 4.5335 43.653 4.475 43.497 4.423C43.341 4.371 43.146 4.345 42.912 4.345C42.6086 4.345 42.3421 4.39917 42.1125 4.5075C41.8871 4.61583 41.6965 4.77183 41.5405 4.9755C41.3888 5.17483 41.274 5.41967 41.196 5.71C41.1223 5.996 41.0855 6.31883 41.0855 6.6785C41.0855 7.05117 41.1266 7.38267 41.209 7.673C41.2913 7.96333 41.4083 8.20817 41.56 8.4075C41.716 8.60683 41.9023 8.7585 42.119 8.8625C42.34 8.9665 42.587 9.0185 42.86 9.0185C43.1286 9.0185 43.3475 8.986 43.5165 8.921C43.6855 8.856 43.8263 8.7845 43.939 8.7065C44.0516 8.6285 44.147 8.557 44.225 8.492C44.3073 8.427 44.394 8.3945 44.485 8.3945C44.5976 8.3945 44.6843 8.43783 44.745 8.5245L45.1415 9.038C44.9811 9.233 44.8035 9.39767 44.6085 9.532C44.4135 9.66633 44.2076 9.77683 43.991 9.8635C43.7743 9.94583 43.549 10.0043 43.315 10.039C43.081 10.078 42.8448 10.0975 42.6065 10.0975C42.1948 10.0975 41.8091 10.0217 41.4495 9.87C41.0941 9.714 40.7821 9.49083 40.5135 9.2005C40.2491 8.90583 40.039 8.54833 39.883 8.128C39.7313 7.70333 39.6555 7.22017 39.6555 6.6785C39.6555 6.18883 39.7248 5.736 39.8635 5.32C40.0021 4.89967 40.2036 4.53783 40.468 4.2345C40.7366 3.93117 41.0681 3.695 41.4625 3.526C41.8568 3.35267 42.3118 3.266 42.8275 3.266C43.3085 3.266 43.731 3.344 44.095 3.5C44.4633 3.656 44.7905 3.877 45.0765 4.163L44.706 4.67ZM47.6631 4.1565C47.9361 3.88783 48.2351 3.67333 48.5601 3.513C48.8851 3.34833 49.2642 3.266 49.6976 3.266C50.0616 3.266 50.3801 3.32667 50.6531 3.448C50.9304 3.56933 51.1622 3.7405 51.3486 3.9615C51.5392 4.1825 51.6822 4.449 51.7776 4.761C51.8729 5.06867 51.9206 5.40883 51.9206 5.7815V10H50.5296V5.7815C50.5296 5.33517 50.4256 4.9885 50.2176 4.7415C50.0139 4.4945 49.7019 4.371 49.2816 4.371C48.9696 4.371 48.6792 4.4425 48.4106 4.5855C48.1462 4.7285 47.8971 4.9235 47.6631 5.1705V10H46.2656V0.38H47.6631V4.1565Z" fill="#00B4D8"/>
</svg>
